<svg width="57" height="30" viewBox="0 0 57 30" fill="none" xmlns="http://www.w3.org/2000/svg">
<path d="M20.9602 10.1124C20.3102 9.60244 19.6402 9.15244 18.9402 8.75244C16.4702 13.1124 16.0002 17.7924 17.2102 21.6024C17.4602 21.5024 17.7102 21.3924 17.9502 21.2724C18.4402 21.0324 18.9202 20.7624 19.3902 20.4724C19.3802 20.4224 19.3602 20.3724 19.3502 20.3224C18.5902 17.4024 19.0102 14.0624 20.5202 10.9324C20.6502 10.6524 20.8002 10.3824 20.9502 10.1124H20.9602Z" fill="#1A1A1A"/>
<path d="M29.0499 0.2025C28.5999 -0.0675 28.0399 -0.0675 27.5799 0.2025C25.4099 1.4925 23.5899 2.9525 22.0899 4.5325C22.1499 4.5725 22.2099 4.6025 22.2599 4.6325C22.8999 5.0325 23.5099 5.4625 24.1099 5.9225C25.1199 4.9025 26.2499 3.9625 27.5099 3.1025C27.9899 2.7725 28.6299 2.7725 29.1099 3.1025C32.2499 5.2325 34.6399 7.9025 36.0999 10.9225C37.6099 14.0525 38.0299 17.3925 37.2699 20.3125C36.1699 24.5525 32.8199 27.0825 28.3099 27.0825C25.8399 27.0825 23.7199 26.3225 22.1299 24.9425C21.3899 25.3925 20.6399 25.8025 19.8799 26.1525C21.8799 28.2225 24.7299 29.5025 28.3099 29.5025C42.3699 29.5025 45.2199 9.7925 29.0399 0.2025H29.0499Z" fill="#1A1A1A"/>
<path d="M30.6002 13.4425C31.5802 12.0725 32.6702 10.8525 33.8502 9.80255C33.6302 9.47255 33.4002 9.14255 33.1602 8.81255C32.9902 8.59255 32.8102 8.37255 32.6202 8.15255C32.5402 8.05255 32.4702 7.96255 32.3902 7.86255C31.2702 8.84255 30.2002 9.97255 29.2002 11.2725C29.6902 11.9625 30.1502 12.6825 30.6002 13.4425Z" fill="#1A1A1A"/>
<path d="M36.76 4.91247C37.28 5.55246 37.77 6.21247 38.21 6.89247C41.3 5.44247 44.58 5.04247 47.45 5.79247C51.69 6.89247 54.22 10.2425 54.22 14.7525C54.22 19.2625 51.69 22.6125 47.45 23.7125C45.2 24.2925 42.7 24.1825 40.24 23.4025C39.9 24.1725 39.5 24.8925 39.04 25.5525C47.77 28.5625 56.63 24.1725 56.63 14.7525C56.63 4.50247 46.15 0.202465 36.75 4.91247H36.76Z" fill="#1A1A1A"/>
<path d="M27.44 18.2325C26.95 17.5425 26.48 16.8225 26.04 16.0625C23.97 18.9525 21.43 21.1625 18.57 22.5425C15.44 24.0525 12.1 24.4725 9.18 23.7125C4.94 22.6125 2.41 19.2625 2.41 14.7525C2.41 10.2425 4.94 6.89248 9.18 5.79248C12.1 5.03248 15.44 5.45248 18.57 6.96248C21.43 8.34248 23.97 10.5525 26.04 13.4425C26.34 13.8625 26.63 14.3025 26.92 14.7525C27.16 15.1825 27.4 15.5925 27.65 15.9925C27.76 16.1625 27.87 16.3325 27.98 16.4925C28.09 16.6625 28.2 16.8425 28.32 17.0125C30.09 19.6025 32.14 21.6325 34.31 23.1325C34.82 22.5325 35.23 21.8425 35.55 21.0525C33.7 19.7525 32.04 18.0625 30.6 16.0525C30.57 16.0125 30.54 15.9625 30.51 15.9225C30.24 15.5425 29.98 15.1525 29.72 14.7425C29.52 14.3825 29.31 14.0225 29.1 13.6825C29.06 13.6225 29.02 13.5525 28.98 13.4925C19.27 -2.08752 0 0.852479 0 14.7525C0 28.6525 17.38 31.2725 27.44 18.2325Z" fill="#1A1A1A"/>
</svg>
