<svg width="37" height="20" viewBox="0 0 37 20" fill="none" xmlns="http://www.w3.org/2000/svg">
<g id="Asset 1" clip-path="url(#clip0_542_702)">
<g id="Layer 1">
<g id="Group">
<path id="Vector" d="M13.437 7.02567C13.0203 6.69872 12.5907 6.41024 12.142 6.15381C10.5586 8.94888 10.2572 11.9491 11.0329 14.3916C11.1932 14.3275 11.3535 14.257 11.5073 14.18C11.8215 14.0262 12.1292 13.8531 12.4305 13.6672C12.4241 13.6351 12.4112 13.6031 12.4048 13.571C11.9176 11.6991 12.1869 9.5579 13.1549 7.55135C13.2382 7.37185 13.3344 7.19876 13.4306 7.02567H13.437Z" fill="currentColor"/>
<path id="Vector_2" d="M18.6237 0.672786C18.3353 0.499696 17.9763 0.499696 17.6814 0.672786C16.2902 1.49977 15.1235 2.43573 14.1619 3.44863C14.2004 3.47427 14.2388 3.4935 14.2709 3.51274C14.6812 3.76916 15.0722 4.04483 15.4569 4.33972C16.1043 3.68582 16.8287 3.08322 17.6365 2.53189C17.9442 2.32034 18.3545 2.32034 18.6622 2.53189C20.6752 3.89738 22.2073 5.60904 23.1433 7.54508C24.1113 9.55163 24.3806 11.6928 23.8934 13.5647C23.1882 16.2829 21.0406 17.9048 18.1494 17.9048C16.5659 17.9048 15.2068 17.4176 14.1875 16.5329C13.7131 16.8214 13.2323 17.0842 12.7451 17.3086C14.0273 18.6356 15.8543 19.4562 18.1494 19.4562C27.1628 19.4562 28.9899 6.82067 18.6173 0.672786H18.6237Z" fill="currentColor"/>
<path id="Vector_3" d="M19.6172 9.16068C20.2455 8.28241 20.9442 7.5003 21.7007 6.82718C21.5597 6.61562 21.4122 6.40407 21.2584 6.19251C21.1494 6.05148 21.034 5.91044 20.9122 5.76941C20.8609 5.7053 20.816 5.6476 20.7647 5.5835C20.0467 6.21175 19.3608 6.93616 18.7197 7.76955C19.0339 8.21189 19.3287 8.67346 19.6172 9.16068Z" fill="currentColor"/>
<path id="Vector_4" d="M23.566 3.69211C23.8993 4.1024 24.2135 4.52551 24.4955 4.96144C26.4764 4.03188 28.5792 3.77545 30.419 4.25626C33.1372 4.96144 34.7591 7.10903 34.7591 10.0003C34.7591 12.8915 33.1372 15.0391 30.419 15.7443C28.9766 16.1161 27.374 16.0456 25.7969 15.5455C25.5789 16.0392 25.3225 16.5007 25.0276 16.9238C30.6242 18.8535 36.3041 16.0392 36.3041 10.0003C36.3041 3.42927 29.5856 0.672664 23.5596 3.69211H23.566Z" fill="#1A1A1A"/>
<path id="Vector_5" d="M17.591 12.2312C17.2769 11.7889 16.9756 11.3273 16.6935 10.8401C15.3665 12.6928 13.7382 14.1096 11.9047 14.9943C9.89815 15.9623 7.75697 16.2315 5.88504 15.7443C3.1669 15.0391 1.54498 12.8915 1.54498 10.0003C1.54498 7.10907 3.1669 4.96148 5.88504 4.2563C7.75697 3.76909 9.89815 4.03834 11.9047 5.00635C13.7382 5.89103 15.3665 7.3078 16.6935 9.1605C16.8858 9.42975 17.0718 9.71182 17.2577 10.0003C17.4115 10.276 17.5654 10.5388 17.7256 10.7952C17.7962 10.9042 17.8667 11.0132 17.9372 11.1158C18.0077 11.2248 18.0782 11.3401 18.1552 11.4491C19.2899 13.1095 20.6041 14.4109 21.9952 15.3725C22.3221 14.9878 22.585 14.5455 22.7901 14.0391C21.6041 13.2057 20.5399 12.1223 19.6168 10.8337C19.5976 10.8081 19.5783 10.776 19.5591 10.7504C19.386 10.5068 19.2193 10.2567 19.0527 9.99389C18.9244 9.76311 18.7898 9.53232 18.6552 9.31436C18.6296 9.27589 18.6039 9.23102 18.5783 9.19255C12.3535 -0.795347 0 1.0894 0 10.0003C0 18.9112 11.1418 20.5908 17.591 12.2312Z" fill="currentColor"/>
</g>
</g>
</g>
<defs>
<clipPath id="clip0_542_702">
<rect width="36.3103" height="18.9116" fill="currentColor" transform="translate(0 0.544434)"/>
</clipPath>
</defs>
</svg>
